<?xml version="1.0" encoding="UTF-8"?>
<!-- Generator: visioncortex VTracer 0.6.12 -->
<svg version="1.1" xmlns="http://www.w3.org/2000/svg" width="260" height="251">
<path d="M0 0 C0 0.66 0 1.32 0 2 C0.99 2.33 1.98 2.66 3 3 C7.309 8.139 9.455 14.402 11.5 20.688 C12.093 22.466 12.688 24.243 13.285 26.02 C13.429 26.447 13.429 26.447 14.157 28.612 C14.888 30.683 15.68 32.688 16.559 34.699 C19.911 42.42 21.517 49.578 20 58 C18.347 61.17 17.449 61.427 14 63 C6.957 64.006 0.868 61.993 -5.688 59.625 C-6.598 59.308 -7.509 58.991 -8.447 58.664 C-12.086 57.396 -15.716 56.103 -19.34 54.793 C-25.614 52.923 -32.252 53.36 -38.254 55.969 C-44.758 59.81 -47.503 67.307 -49.691 74.168 C-57.731 106.833 -42.826 151.074 -31.586 181.891 C-25.669 198.335 -25.669 198.335 -28.898 206.184 C-30.586 208.966 -31.949 209.831 -35 211 C-42.341 210.435 -48.814 206.925 -55.312 203.75 C-65.311 199.008 -75.221 195.482 -85.882 192.583 C-102.735 187.941 -102.735 187.941 -107.812 181.812 C-110.689 174.999 -110.083 168.302 -108.5 161.25 C-108.323 160.409 -108.146 159.567 -107.963 158.7 C-106.576 152.255 -104.996 145.858 -103.414 139.458 C-98.924 121.246 -94.718 103.341 -94.562 84.5 C-94.552 83.562 -94.542 82.625 -94.531 81.659 C-94.623 74.628 -95.673 68.844 -100.25 63.25 C-108.025 56.889 -115.068 55.108 -125 56 C-130.804 57.252 -136.604 58.562 -141.727 61.637 C-144 63 -144 63 -147 63 C-147.33 63.66 -147.66 64.32 -148 65 C-152.84 67.562 -157.508 67.68 -162.75 66.25 C-165.388 64.785 -166.413 63.557 -168 61 C-170.144 50.792 -165.654 41.557 -161.812 32.375 C-161.227 30.925 -160.643 29.475 -160.061 28.023 C-150.655 4.767 -150.655 4.767 -144 1 C-137.197 -0.495 -130.069 1.69 -123.476 3.4 C-109.056 6.982 -94.148 7.351 -79.369 7.316 C-76.634 7.313 -73.899 7.336 -71.164 7.361 C-55.508 7.418 -40.076 5.964 -25.062 1.312 C-16.849 -1.038 -8.334 -2.778 0 0 Z " fill="#0C0C0C" transform="translate(204,25)"/>
</svg>
